# xmcd
#
# Track frame offsets:
#	150
#	14209
#	25819
#	44895
#	65532
#	81270
#	100169
#	115629
#	126292
#	139799
#
# Disc length: 2085 seconds
#
# Revision: 1
# Processed by: cddbd v1.5.2PL0 Copyright (c) Steve Scherf et al.
# Submitted via: audiograbber 1.83.01
#
DISCID=8e08230a
DTITLE=Snow - Snow
DYEAR=1968
DGENRE=Psychadelic
TTITLE0=Where Has My Old Friend Billy Jones Gone
TTITLE1=The Golden Oldie Show
TTITLE2=Old Uncle Timothy's Flying Balloon
TTITLE3=Englebert
TTITLE4=You Let Me Know
TTITLE5=Song Of The Sirens
TTITLE6=The Flying Miraldos
TTITLE7=Sweet Dreams
TTITLE8=Bab's Song
TTITLE9=Caterpillar
EXTD=
EXTT0=
EXTT1=
EXTT2=
EXTT3=
EXTT4=
EXTT5=
EXTT6=
EXTT7=
EXTT8=
EXTT9=
PLAYORDER=
